<svg xmlns="http://www.w3.org/2000/svg" viewBox="0 0 32 32" fill="none">
  <circle cx="16" cy="16" r="16" fill="#1C1810"/>
  <circle cx="16" cy="15" r="9" fill="#D4A843" opacity="0.10"/>
  <circle cx="16" cy="16" r="12" stroke="#B8922A" stroke-width="0.75" opacity="0.85"/>
  <line x1="16"   y1="4"    x2="16"   y2="7"    stroke="#B8922A" stroke-width="1.5" stroke-linecap="round"/>
  <line x1="28"   y1="16"   x2="25"   y2="16"   stroke="#B8922A" stroke-width="1.5" stroke-linecap="round"/>
  <line x1="16"   y1="28"   x2="16"   y2="25"   stroke="#B8922A" stroke-width="1.5" stroke-linecap="round"/>
  <line x1="4"    y1="16"   x2="7"    y2="16"   stroke="#B8922A" stroke-width="1.5" stroke-linecap="round"/>
  <line x1="22.0" y1="5.6"  x2="21.1" y2="7.2"  stroke="#B8922A" stroke-width="0.75" stroke-linecap="round" opacity="0.60"/>
  <line x1="26.4" y1="10.0" x2="24.8" y2="10.9" stroke="#B8922A" stroke-width="0.75" stroke-linecap="round" opacity="0.60"/>
  <line x1="26.4" y1="22.0" x2="24.8" y2="21.1" stroke="#B8922A" stroke-width="0.75" stroke-linecap="round" opacity="0.60"/>
  <line x1="22.0" y1="26.4" x2="21.1" y2="24.8" stroke="#B8922A" stroke-width="0.75" stroke-linecap="round" opacity="0.60"/>
  <line x1="10.0" y1="26.4" x2="10.9" y2="24.8" stroke="#B8922A" stroke-width="0.75" stroke-linecap="round" opacity="0.60"/>
  <line x1="5.6"  y1="22.0" x2="7.2"  y2="21.1" stroke="#B8922A" stroke-width="0.75" stroke-linecap="round" opacity="0.60"/>
  <line x1="5.6"  y1="10.0" x2="7.2"  y2="10.9" stroke="#B8922A" stroke-width="0.75" stroke-linecap="round" opacity="0.60"/>
  <line x1="10.0" y1="5.6"  x2="10.9" y2="7.2"  stroke="#B8922A" stroke-width="0.75" stroke-linecap="round" opacity="0.60"/>
  <ellipse cx="16.0" cy="21.5" rx="3.4" ry="2.0" fill="#FAF6E8" opacity="0.78"/>
  <ellipse cx="13.2" cy="22.4" rx="2.2" ry="1.6" fill="#FAF6E8" opacity="0.78"/>
  <ellipse cx="18.5" cy="22.3" rx="2.0" ry="1.5" fill="#FAF6E8" opacity="0.78"/>
  <circle cx="16" cy="15.5" r="3.8" fill="#D4A843" opacity="0.18"/>
  <circle cx="16" cy="15.5" r="2.2" fill="#D4A843" opacity="0.90"/>
  <line x1="16" y1="16" x2="10.4" y2="12.8" stroke="#FAF6E8" stroke-width="1.6" stroke-linecap="round"/>
  <line x1="16" y1="16" x2="23.1" y2="11.9" stroke="#FAF6E8" stroke-width="1.0" stroke-linecap="round"/>
  <circle cx="16" cy="16" r="1.3" fill="#D4A843"/>
  <circle cx="16" cy="16" r="0.55" fill="#FAF6E8"/>
</svg>
